<svg class="railroad-diagram" height="100" viewBox="0 0 246.5 100" width="246.5" xmlns="http://www.w3.org/2000/svg" xmlns:xlink="http://www.w3.org/1999/xlink">
<style>/* <![CDATA[ */
	svg.railroad-diagram {
		background-color:hsl(30,20%,95%);
	}
	svg.railroad-diagram path {
		stroke-width:3;
		stroke:black;
		fill:rgba(0,0,0,0);
	}
	svg.railroad-diagram text {
		font:bold 14px monospace;
		text-anchor:middle;
	}
	svg.railroad-diagram text.label{
		text-anchor:start;
	}
	svg.railroad-diagram text.comment{
		font:italic 12px monospace;
	}
	svg.railroad-diagram rect{
		stroke-width:3;
		stroke:black;
		fill:hsl(120,100%,90%);
	}
	svg.railroad-diagram rect.group-box {
		stroke: gray;
		stroke-dasharray: 10 5;
		fill: none;
	}

/* ]]> */
</style><g transform="translate(.5 .5)">
<g>
<path d="M20 21v20m10 -20v20m-10 -10h52.5" /><text style="text-anchor:start" x="20" y="16">words</text></g><path d="M72.5 31h10" /><g>
<path d="M82.5 31h0.0" /><path d="M196.5 31h0.0" /><path d="M82.5 31h10" /><g>
<path d="M92.5 31h0.0" /><path d="M186.5 31h0.0" /><path d="M92.5 31h20" /><g class="terminal ">
<path d="M112.5 31h0.0" /><path d="M166.5 31h0.0" /><rect height="22" rx="10" ry="10" width="54" x="112.5" y="20"></rect><text x="139.5" y="35">WORD</text></g><path d="M166.5 31h20" /><path d="M92.5 31a10 10 0 0 1 10 10v10a10 10 0 0 0 10 10" /><g class="terminal ">
<path d="M112.5 61h4.25" /><path d="M162.25 61h4.25" /><rect height="22" rx="10" ry="10" width="45.5" x="116.75" y="50"></rect><text x="139.5" y="65">INT</text></g><path d="M166.5 61a10 10 0 0 0 10 -10v-10a10 10 0 0 1 10 -10" /></g><path d="M186.5 31h10" /><path d="M92.5 31a10 10 0 0 0 -10 10v29a10 10 0 0 0 10 10" /><g>
<path d="M92.5 80h94.0" /></g><path d="M186.5 80a10 10 0 0 0 10 -10v-29a10 10 0 0 0 -10 -10" /></g><path d="M196.5 31h10" /><path d="M 206.5 31 h 20 m -10 -10 v 20 m 10 -20 v 20"></path></g></svg>