<svg class="railroad-diagram" height="62" viewBox="0 0 235.0 62" width="235.0" xmlns="http://www.w3.org/2000/svg" xmlns:xlink="http://www.w3.org/1999/xlink">
<style>/* <![CDATA[ */
	svg.railroad-diagram {
		background-color:hsl(30,20%,95%);
	}
	svg.railroad-diagram path {
		stroke-width:3;
		stroke:black;
		fill:rgba(0,0,0,0);
	}
	svg.railroad-diagram text {
		font:bold 14px monospace;
		text-anchor:middle;
	}
	svg.railroad-diagram text.label{
		text-anchor:start;
	}
	svg.railroad-diagram text.comment{
		font:italic 12px monospace;
	}
	svg.railroad-diagram rect{
		stroke-width:3;
		stroke:black;
		fill:hsl(120,100%,90%);
	}
	svg.railroad-diagram rect.group-box {
		stroke: gray;
		stroke-dasharray: 10 5;
		fill: none;
	}

/* ]]> */
</style><g transform="translate(.5 .5)">
<g>
<path d="M20 21v20m10 -20v20m-10 -10h61.0" /><text style="text-anchor:start" x="20" y="16">weight</text></g><path d="M81.0 31h10" /><g>
<path d="M91.0 31h0.0" /><path d="M185.0 31h0.0" /><g class="terminal ">
<path d="M91.0 31h0.0" /><path d="M119.5 31h0.0" /><rect height="22" rx="10" ry="10" width="28.5" x="91" y="20"></rect><text x="105.25" y="35">^</text></g><path d="M119.5 31h10" /><path d="M129.5 31h10" /><g class="terminal ">
<path d="M139.5 31h0.0" /><path d="M185.0 31h0.0" /><rect height="22" rx="10" ry="10" width="45.5" x="139.5" y="20"></rect><text x="162.25" y="35">INT</text></g></g><path d="M185.0 31h10" /><path d="M 195.0 31 h 20 m -10 -10 v 20 m 10 -20 v 20"></path></g></svg>